HIERARCHY
ROOT Hips
{
	OFFSET 0.00000 0.00000 0.00000
	CHANNELS 6 Xposition Yposition Zposition Zrotation Yrotation Xrotation 
	JOINT LHipJoint
	{
		OFFSET 0 0 0
		CHANNELS 3 Zrotation Yrotation Xrotation
		JOINT LeftHip
		{
			OFFSET 1.42489 -1.84941 0.69647
			CHANNELS 3 Zrotation Yrotation Xrotation
			JOINT LeftKnee
			{
				OFFSET 2.44443 -6.71602 0.00000
				CHANNELS 3 Zrotation Yrotation Xrotation
				JOINT LeftAnkle
				{
					OFFSET 2.62838 -7.22137 0.00000
					CHANNELS 3 Zrotation Yrotation Xrotation
					JOINT LeftToe
					{
						OFFSET 0.24036 -0.66037 2.29953
						CHANNELS 3 Zrotation Yrotation Xrotation
						End Site
						{
							OFFSET 0.00000 -0.00000 1.19837
						}
					}
				}
			}
		}
	}
	JOINT RHipJoint
	{
		OFFSET 0 0 0
		CHANNELS 3 Zrotation Yrotation Xrotation
		JOINT RightHip
		{
			OFFSET -1.37055 -1.84941 0.69647
			CHANNELS 3 Zrotation Yrotation Xrotation
			JOINT RightKnee
			{
				OFFSET -2.54834 -7.00152 0.00000
				CHANNELS 3 Zrotation Yrotation Xrotation
				JOINT RightAnkle
				{
					OFFSET -2.65692 -7.29983 0.00000
					CHANNELS 3 Zrotation Yrotation Xrotation
					JOINT RightToe
					{
						OFFSET -0.18839 -0.51760 2.29390
						CHANNELS 3 Zrotation Yrotation Xrotation
						End Site
						{
							OFFSET -0.00000 -0.00000 1.18261
						}
					}
				}
			}
		}
	}
	JOINT lowerback
	{
		OFFSET 0 0 0
		CHANNELS 3 Zrotation Yrotation Xrotation
		JOINT Chest
		{
			OFFSET 0.05220 2.15489 0.05011
			CHANNELS 3 Zrotation Yrotation Xrotation
			JOINT Chest2
			{
				OFFSET -0.07653 2.14219 -0.05668
				CHANNELS 3 Zrotation Yrotation Xrotation
				JOINT lowerneck
				{
					OFFSET 0 0 0
					CHANNELS 3 Zrotation Yrotation Xrotation
					JOINT Neck
					{
						OFFSET 0.01370 1.58638 0.01447
						CHANNELS 3 Zrotation Yrotation Xrotation
						JOINT Head
						{
							OFFSET 0.23548 1.54190 -0.21747
							CHANNELS 3 Zrotation Yrotation Xrotation
							End Site
							{
								OFFSET 0.07132 1.59823 -0.08163
							}
						}
					}
				}
				JOINT LeftCollar
				{
					OFFSET 0 0 0
					CHANNELS 3 Zrotation Yrotation Xrotation
					JOINT LeftShoulder
					{
						OFFSET 3.47056 1.45357 -0.58896
CHANNELS 3 Zrotation Xrotation Yrotation
						JOINT LeftElbow
						{
OFFSET 0 -5.190690 0.000000
CHANNELS 3 Zrotation Xrotation Yrotation
							JOINT LeftWrist
							{
OFFSET 0 -3.300160 0.000000
CHANNELS 3 Zrotation Xrotation Yrotation
								JOINT lhand
								{
									OFFSET 0 0 0
CHANNELS 3 Zrotation Xrotation Yrotation
									JOINT LFingers
									{
OFFSET 0 -0.707700 0.000000
CHANNELS 3 Zrotation Xrotation Yrotation
										End Site
										{
OFFSET 0 -0.570560 0.000000
										}
									}
								}
								JOINT LThumb
								{
OFFSET 0 0.000000 0.000000
CHANNELS 3 Zrotation Xrotation Yrotation
									End Site
									{
OFFSET 0 -0.579280 0.579280
									}
								}
							}
						}
					}
				}
				JOINT RightCollar
				{
					OFFSET 0 0 0
					CHANNELS 3 Zrotation Yrotation Xrotation
					JOINT RightShoulder
					{
						OFFSET -2.89018 2.03305 -0.26731
CHANNELS 3 Zrotation Xrotation Yrotation
						JOINT RightElbow
						{
OFFSET 0 -5.239240 0.000000
CHANNELS 3 Zrotation Xrotation Yrotation
							JOINT RightWrist
							{
OFFSET 0 -3.329530 0.000000
CHANNELS 3 Zrotation Xrotation Yrotation
								JOINT rhand
								{
									OFFSET 0 0 0
CHANNELS 3 Zrotation Xrotation Yrotation
									JOINT RFingers
									{
OFFSET 0 -0.607410 0.000000
CHANNELS 3 Zrotation Xrotation Yrotation
										End Site
										{
OFFSET 0 -0.489710 0.000000
										}
									}
								}
								JOINT RThumb
								{
OFFSET 0 0.000000 0.000000
CHANNELS 3 Zrotation Xrotation Yrotation
									End Site
									{
OFFSET 0 -0.497190 0.497190
									}
								}
							}
						}
					}
				}
			}
		}
	}
}
MOTION
Frames: 10
Frame Time: 0.008333333333333333
4.357800 17.181300 2.037600 -10.668300 -4.681700 1.591000 0.000000 0.000000 0.000000 -6.917800 1.968000 -10.463600 3.839300 11.943400 35.532000 2.355900 4.570300 -30.897900 0.211400 -2.960400 -8.168500 0.000000 0.000000 0.000000 28.511200 10.341400 -16.585100 -3.848500 -11.956000 35.576600 -0.919400 3.397700 -17.296000 -0.014300 0.771500 -2.120400 9.847100 -2.839000 0.063400 0.873000 -4.116300 5.094300 -4.726500 -1.659000 4.695800 -13.579400 -14.279000 0.770100 23.604700 -20.259100 0.517600 8.204600 -10.084000 3.972200 -0.000000 0.000000 0.000000 7.523700 -6.499100 -17.717700 9.731300 -16.318200 1.398500 9.571400 -1.244300 4.453300 0.000000 0.000000 0.000000 -7.125000 0.000000 0.000000 -12.791300 25.439100 -6.204100 -0.000000 0.000000 0.000000 -2.018700 -2.533500 24.250400 -14.100000 -22.877400 -2.866900 -11.384000 4.009300 6.700200 0.000000 0.000000 0.000000 7.125000 0.000000 -0.000000 12.928100 36.540700 2.746200
4.272885 17.180542 2.084438 -10.800847 -4.186155 1.502986 0.000000 0.000000 0.000000 -6.389345 1.942448 -10.380275 3.861203 11.973366 35.637813 2.335361 4.337546 -30.663587 0.248663 -3.208417 -8.859528 0.000000 0.000000 0.000000 28.988790 9.993469 -16.335724 -3.827349 -11.927025 35.474478 -0.945942 3.392802 -17.553646 -0.008117 0.581612 -1.598158 10.182234 -2.850886 0.018408 0.980342 -4.150470 5.089364 -4.802110 -1.663813 4.701993 -13.495508 -14.311882 0.820507 23.630271 -20.271945 0.319008 8.206723 -10.100419 3.902555 0.000000 0.000000 0.000000 7.444182 -6.361825 -17.953993 9.893201 -16.572382 1.444341 9.547171 -1.470046 4.475473 0.000000 0.000000 0.000000 -7.125000 0.000000 0.000000 -12.807182 25.417291 -6.218814 0.000000 0.000000 0.000000 -2.058093 -2.741540 24.576714 -14.372655 -23.264906 -2.973737 -11.441711 3.907191 6.791052 0.000000 0.000000 0.000000 7.125000 0.000000 0.000000 12.897596 36.634312 2.709108
4.193476 17.180178 2.124054 -10.873308 -3.710319 1.476794 0.000000 0.000000 0.000000 -5.930945 1.977437 -10.467998 3.894110 12.018096 35.796178 2.307138 4.022011 -30.345862 0.284821 -3.432159 -9.484475 0.000000 0.000000 0.000000 29.371008 9.678546 -16.208008 -3.814062 -11.908807 35.410217 -0.969967 3.415437 -17.780067 -0.002428 0.315652 -0.867251 10.482433 -2.890995 -0.004427 1.066130 -4.215152 5.050757 -4.878737 -1.688775 4.654668 -13.438317 -14.330730 0.849687 23.612465 -20.272366 0.191161 8.197943 -10.106748 3.852322 0.000000 0.000000 0.000000 7.339780 -6.218428 -17.846606 10.096300 -16.890142 1.502862 9.603236 -1.623529 4.439797 0.000000 0.000000 0.000000 -7.125000 0.000000 0.000000 -12.769101 25.452097 -6.188786 0.000000 0.000000 0.000000 -2.129130 -2.954933 25.199746 -14.644019 -23.647927 -3.081703 -11.555785 3.571531 6.933240 0.000000 0.000000 0.000000 7.125000 0.000000 0.000000 12.830176 36.782534 2.646941
4.115230 17.179167 2.162148 -10.897818 -3.251473 1.457852 0.000000 0.000000 0.000000 -5.525677 2.038110 -10.594139 3.931673 12.068861 35.976066 2.280016 3.674577 -30.021478 0.322207 -3.648251 -10.089056 0.000000 0.000000 0.000000 29.690507 9.372109 -16.126655 -3.809392 -11.902376 35.387577 -0.995843 3.465473 -18.016928 -0.000125 0.055357 -0.152011 10.743268 -2.914720 -0.037091 1.136259 -4.257316 5.009487 -4.949956 -1.703664 4.614270 -13.416460 -14.352868 0.928824 23.627292 -20.280463 0.039301 8.207887 -10.121053 3.795882 0.000000 0.000000 0.000000 7.243966 -6.110024 -17.771041 10.277993 -17.173183 1.556044 9.644142 -1.806232 4.455985 0.000000 0.000000 0.000000 -7.125000 0.000000 0.000000 -12.737223 25.435715 -6.177610 0.000000 0.000000 0.000000 -2.210551 -3.167475 25.783201 -14.902939 -24.010686 -3.186372 -11.642948 3.266824 6.982527 0.000000 0.000000 0.000000 7.125000 0.000000 0.000000 12.767306 36.836709 2.616138
4.039150 17.178178 2.197143 -10.862447 -2.816176 1.463014 0.000000 0.000000 0.000000 -5.185945 2.149881 -10.790866 3.972151 12.123190 36.169248 2.249435 3.280931 -29.657955 0.359553 -3.852249 -10.661407 0.000000 0.000000 0.000000 29.928829 9.073274 -16.110436 -3.810432 -11.903787 35.392361 -1.021813 3.537652 -18.248506 -0.000899 -0.189066 0.519517 10.955832 -2.921880 -0.076016 1.183298 -4.275666 4.963651 -5.018709 -1.708268 4.577045 -13.420784 -14.385062 1.031751 23.660776 -20.306662 -0.112492 8.226815 -10.145821 3.743839 0.000000 0.000000 0.000000 7.168610 -6.057380 -17.698997 10.436804 -17.419954 1.603229 9.665574 -2.006046 4.527234 0.000000 0.000000 0.000000 -7.125000 0.000000 0.000000 -12.714552 25.365021 -6.187546 0.000000 0.000000 0.000000 -2.300609 -3.379599 26.379125 -15.148813 -24.352991 -3.287064 -11.727873 2.953366 6.940989 0.000000 0.000000 0.000000 7.125000 0.000000 0.000000 12.689182 36.800587 2.610899
3.965333 17.177964 2.229117 -10.783442 -2.402226 1.495441 0.000000 0.000000 0.000000 -4.894286 2.303326 -11.058559 4.015915 12.181578 36.377443 2.214225 2.854809 -29.253901 0.397047 -4.045673 -11.205274 0.000000 0.000000 0.000000 30.105841 8.788087 -16.150140 -3.813729 -11.908248 35.408281 -1.046431 3.595767 -18.467132 -0.003629 -0.385958 1.060615 11.129451 -2.911000 -0.126175 1.213177 -4.269701 4.917093 -5.084335 -1.701558 4.550152 -13.437138 -14.433694 1.132570 23.696109 -20.358971 -0.247068 8.243699 -10.182623 3.703691 0.000000 0.000000 0.000000 7.121444 -6.073633 -17.662829 10.567847 -17.622820 1.642711 9.674077 -2.213466 4.667670 0.000000 0.000000 0.000000 -7.125000 0.000000 0.000000 -12.694843 25.226013 -6.219730 0.000000 0.000000 0.000000 -2.400893 -3.594809 26.978051 -15.379093 -24.671493 -3.382641 -11.784509 2.669441 6.903881 0.000000 0.000000 0.000000 7.125000 0.000000 0.000000 12.635294 36.767055 2.610006
3.894055 17.178683 2.258052 -10.682928 -1.999871 1.549215 0.000000 0.000000 0.000000 -4.626325 2.480930 -11.380973 4.062657 12.243348 36.598391 2.176121 2.399531 -28.822807 0.430618 -4.210943 -11.670959 0.000000 0.000000 0.000000 30.250213 8.532310 -16.223817 -3.816831 -11.912614 35.423624 -1.068189 3.602554 -18.664232 -0.007031 -0.540393 1.484963 11.278427 -2.888913 -0.184517 1.235755 -4.249163 4.871459 -5.144487 -1.687958 4.532109 -13.463164 -14.495980 1.224799 23.728316 -20.433188 -0.361210 8.256710 -10.228656 3.675762 0.000000 0.000000 0.000000 7.094412 -6.145180 -17.672582 10.681291 -17.798092 1.677232 9.686604 -2.408171 4.839055 0.000000 0.000000 0.000000 -7.125000 0.000000 0.000000 -12.669535 25.056244 -6.258064 0.000000 0.000000 0.000000 -2.516762 -3.816192 27.577236 -15.586614 -24.956942 -3.469673 -11.786664 2.445999 6.963287 0.000000 0.000000 0.000000 7.125000 0.000000 0.000000 12.644677 36.826338 2.593265
3.825979 17.180116 2.283413 -10.563974 -1.595194 1.617784 0.000000 0.000000 0.000000 -4.377898 2.676234 -11.746647 4.112056 12.307983 36.830356 2.139916 1.907929 -28.393284 0.455566 -4.329898 -12.006699 0.000000 0.000000 0.000000 30.365105 8.320130 -16.324392 -3.821532 -11.919056 35.446383 -1.087158 3.538743 -18.844813 -0.010670 -0.666924 1.832728 11.400322 -2.866873 -0.242334 1.255696 -4.227712 4.823382 -5.192193 -1.675329 4.512626 -13.503340 -14.561690 1.318619 23.759183 -20.515709 -0.457002 8.269880 -10.278202 3.655820 0.000000 0.000000 0.000000 7.073111 -6.251454 -17.712256 10.786336 -17.960048 1.709430 9.717269 -2.566459 5.004863 0.000000 0.000000 0.000000 -7.125000 0.000000 0.000000 -12.631483 24.891814 -6.288020 0.000000 0.000000 0.000000 -2.655199 -4.044793 28.179646 -15.758739 -25.192458 -3.542683 -11.765937 2.286503 7.078160 0.000000 0.000000 0.000000 7.125000 0.000000 0.000000 12.683621 36.939414 2.565718
3.761967 17.181488 2.304631 -10.421603 -1.171424 1.691392 0.000000 0.000000 0.000000 -4.156471 2.892075 -12.148101 4.165857 12.377955 37.082364 2.112557 1.403964 -28.022309 0.482960 -4.456112 -12.363626 0.000000 0.000000 0.000000 30.441085 8.145607 -16.453515 -3.831412 -11.932575 35.493884 -1.105431 3.414588 -19.028170 -0.014531 -0.777135 2.135835 11.489248 -2.856932 -0.289307 1.271758 -4.219275 4.771028 -5.225292 -1.671209 4.481374 -13.552397 -14.617489 1.408455 23.788702 -20.589065 -0.525868 8.284290 -10.321873 3.643581 0.000000 0.000000 0.000000 7.051249 -6.371000 -17.770823 10.890055 -18.119458 1.741587 9.763099 -2.693244 5.145825 0.000000 0.000000 0.000000 -7.125000 0.000000 0.000000 -12.584955 24.751641 -6.305770 0.000000 0.000000 0.000000 -2.813156 -4.278772 28.781739 -15.892017 -25.373986 -3.599553 -11.801435 2.163729 7.130963 0.000000 0.000000 0.000000 7.125000 0.000000 0.000000 12.664133 36.994069 2.544322
3.702872 17.182000 2.321413 -10.261759 -0.720105 1.755379 0.000000 0.000000 0.000000 -3.964875 3.132592 -12.580809 4.231190 12.461774 37.385873 2.104473 0.916720 -27.791579 0.537367 -4.696548 -13.045159 0.000000 0.000000 0.000000 30.478678 7.987629 -16.604523 -3.847660 -11.954879 35.572576 -1.124809 3.256236 -19.226806 -0.018497 -0.878169 2.413576 11.554848 -2.866111 -0.314015 1.281868 -4.232257 4.718991 -5.250604 -1.679514 4.434794 -13.599263 -14.656573 1.470462 23.814804 -20.644660 -0.549971 8.296516 -10.353104 3.644893 0.000000 0.000000 0.000000 7.030941 -6.491102 -17.860712 11.000780 -18.289429 1.776170 9.803423 -2.823758 5.244809 0.000000 0.000000 0.000000 -7.125000 0.000000 0.000000 -12.546326 24.653141 -6.314969 0.000000 0.000000 0.000000 -2.982382 -4.511910 29.374540 -15.999690 -25.520234 -3.645863 -11.915538 2.043679 7.097268 0.000000 0.000000 0.000000 7.125000 0.000000 0.000000 12.563051 36.967611 2.531510
